<?xml version="1.0" encoding="UTF-8"?>
<svg xmlns="http://www.w3.org/2000/svg" xmlns:xlink="http://www.w3.org/1999/xlink" viewBox="0 0 106.77 75.71">
  <defs>
    <style>
      .cls-1 {
        fill: url(#radial-gradient-7);
      }

      .cls-2 {
        fill: url(#radial-gradient-5);
      }

      .cls-2, .cls-3, .cls-4, .cls-5, .cls-6, .cls-7, .cls-8, .cls-9 {
        mix-blend-mode: overlay;
      }

      .cls-10 {
        fill: url(#radial-gradient-8);
      }

      .cls-11 {
        fill: url(#radial-gradient-4);
      }

      .cls-12 {
        isolation: isolate;
      }

      .cls-3 {
        fill: url(#Degradado_sin_nombre_34);
      }

      .cls-3, .cls-4, .cls-9 {
        opacity: .4;
      }

      .cls-4 {
        fill: url(#radial-gradient-6);
      }

      .cls-5 {
        fill: url(#radial-gradient-2);
      }

      .cls-6 {
        fill: url(#Degradado_sin_nombre_34-3);
      }

      .cls-6, .cls-8 {
        opacity: .2;
      }

      .cls-13 {
        fill: url(#radial-gradient);
      }

      .cls-7 {
        fill: url(#radial-gradient-9);
      }

      .cls-8 {
        fill: url(#Degradado_sin_nombre_34-2);
      }

      .cls-14 {
        fill: url(#radial-gradient-3);
      }

      .cls-9 {
        fill: url(#radial-gradient-10);
      }

      .cls-15 {
        fill: url(#linear-gradient);
      }
    </style>
    <linearGradient id="linear-gradient" x1="90.08" y1="-1.14" x2="22.82" y2="74.02" gradientUnits="userSpaceOnUse">
      <stop offset="0" stop-color="#ffba24"/>
      <stop offset="1" stop-color="#f50"/>
    </linearGradient>
    <radialGradient id="radial-gradient" cx="-656.38" cy="20.08" fx="-656.38" fy="20.08" r="53.81" gradientTransform="translate(-594.71) rotate(-180) scale(1 -1)" gradientUnits="userSpaceOnUse">
      <stop offset="0" stop-color="#fff4c3"/>
      <stop offset=".16" stop-color="#ffe036"/>
      <stop offset="1" stop-color="#fa761c"/>
    </radialGradient>
    <radialGradient id="radial-gradient-2" cx="623.66" cy="-1766.39" fx="623.66" fy="-1766.39" r="8.08" gradientTransform="translate(-2269.42 -3012.39) rotate(126.03) scale(1.43 2.08) skewX(-4.38)" gradientUnits="userSpaceOnUse">
      <stop offset="0" stop-color="#fff"/>
      <stop offset=".1" stop-color="#fff" stop-opacity=".85"/>
      <stop offset=".29" stop-color="#fff" stop-opacity=".59"/>
      <stop offset=".47" stop-color="#fff" stop-opacity=".38"/>
      <stop offset=".63" stop-color="#fff" stop-opacity=".22"/>
      <stop offset=".78" stop-color="#fff" stop-opacity=".1"/>
      <stop offset=".91" stop-color="#fff" stop-opacity=".03"/>
      <stop offset="1" stop-color="#fff" stop-opacity="0"/>
    </radialGradient>
    <radialGradient id="Degradado_sin_nombre_34" data-name="Degradado sin nombre 34" cx="-3385.94" cy="3532.63" fx="-3385.94" fy="3532.63" r="7.79" gradientTransform="translate(-4712.28 -1101.4) rotate(-136.79) scale(1.61 .68) skewX(11.83)" gradientUnits="userSpaceOnUse">
      <stop offset="0" stop-color="#fff"/>
      <stop offset=".1" stop-color="#fff" stop-opacity=".85"/>
      <stop offset=".29" stop-color="#fff" stop-opacity=".59"/>
      <stop offset=".47" stop-color="#fff" stop-opacity=".38"/>
      <stop offset=".63" stop-color="#fff" stop-opacity=".22"/>
      <stop offset=".78" stop-color="#fff" stop-opacity=".1"/>
      <stop offset=".91" stop-color="#fff" stop-opacity=".03"/>
      <stop offset="1" stop-color="#fff" stop-opacity="0"/>
    </radialGradient>
    <radialGradient id="radial-gradient-3" cx="30.41" cy="48.51" fx="30.41" fy="48.51" r="37.04" gradientTransform="translate(60.81 83.95) rotate(-180) scale(1 .73)" gradientUnits="userSpaceOnUse">
      <stop offset="0" stop-color="#fff"/>
      <stop offset=".2" stop-color="#d5f3ff"/>
      <stop offset="1" stop-color="#85bcf1"/>
    </radialGradient>
    <radialGradient id="radial-gradient-4" cx="38.81" cy="53.34" fx="38.81" fy="53.34" r="42.11" gradientUnits="userSpaceOnUse">
      <stop offset="0" stop-color="#ffe036"/>
      <stop offset=".08" stop-color="#fecb30" stop-opacity=".81"/>
      <stop offset=".18" stop-color="#fcb52b" stop-opacity=".6"/>
      <stop offset=".28" stop-color="#fca126" stop-opacity=".41"/>
      <stop offset=".38" stop-color="#fb9122" stop-opacity=".26"/>
      <stop offset=".48" stop-color="#fa851f" stop-opacity=".15"/>
      <stop offset=".58" stop-color="#fa7c1d" stop-opacity=".07"/>
      <stop offset=".68" stop-color="#fa771c" stop-opacity=".02"/>
      <stop offset=".77" stop-color="#fa761c" stop-opacity="0"/>
    </radialGradient>
    <radialGradient id="radial-gradient-5" cx="654.23" cy="-1758.61" fx="654.23" fy="-1758.61" r="4.47" xlink:href="#radial-gradient-2"/>
    <radialGradient id="radial-gradient-6" cx="654.09" cy="-1766.86" fx="654.09" fy="-1766.86" r="3.51" xlink:href="#radial-gradient-2"/>
    <radialGradient id="Degradado_sin_nombre_34-2" data-name="Degradado sin nombre 34" cx="5.77" cy="68.41" fx="5.77" fy="68.41" r="2.57" gradientTransform="translate(-85.82 -108.53) rotate(-25.71) scale(1 2.91)" xlink:href="#Degradado_sin_nombre_34"/>
    <radialGradient id="radial-gradient-7" cx="92.71" cy="20" fx="92.71" fy="20" r="28.68" gradientTransform="translate(185.43 34.61) rotate(-180) scale(1 .73)" xlink:href="#radial-gradient-3"/>
    <radialGradient id="radial-gradient-8" cx="73.98" cy="29.85" fx="73.98" fy="29.85" r="38.33" xlink:href="#radial-gradient-4"/>
    <radialGradient id="radial-gradient-9" cx="610.63" cy="-1774.83" fx="610.63" fy="-1774.83" r="3.46" xlink:href="#radial-gradient-2"/>
    <radialGradient id="radial-gradient-10" cx="610.53" cy="-1781.22" fx="610.53" fy="-1781.22" r="2.72" xlink:href="#radial-gradient-2"/>
    <radialGradient id="Degradado_sin_nombre_34-3" data-name="Degradado sin nombre 34" cx="73.64" cy="35.41" fx="73.64" fy="35.41" r="1.99" gradientTransform="translate(-37.42 -25.52) rotate(-25.71) scale(1 2.91)" xlink:href="#Degradado_sin_nombre_34"/>
  </defs>
  <g class="cls-12">
    <g id="Layer_2" data-name="Layer 2">
      <g id="OBJECTS">
        <g>
          <g>
            <polygon class="cls-15" points="85.13 61.71 76.75 62.26 75.17 70.51 67.1 68.16 62.79 75.37 56.02 70.4 49.5 75.71 44.83 68.73 36.9 71.48 34.9 63.32 26.5 63.2 27.41 54.85 19.56 51.86 23.28 44.32 16.92 38.83 22.99 33.02 18.89 25.68 26.58 22.3 25.24 14.01 33.63 13.46 35.21 5.2 43.27 7.55 47.58 .34 54.36 5.3 60.87 0 65.54 6.98 73.47 4.22 75.47 12.39 83.87 12.51 82.96 20.86 90.81 23.85 87.1 31.38 93.46 36.88 87.39 42.69 91.48 50.03 83.79 53.41 85.13 61.71"/>
            <path class="cls-13" d="m26.84,37.85c0,15.65,12.69,28.35,28.34,28.35s28.35-12.69,28.35-28.35-12.69-28.34-28.35-28.34-28.34,12.69-28.34,28.34Z"/>
            <g>
              <path class="cls-5" d="m59.51,34.94c-7.22-5.86-10.04-14.77-6.3-19.92,3.75-5.15,12.63-4.57,19.85,1.29,7.22,5.86,10.03,14.78,6.29,19.92-3.75,5.15-12.63,4.57-19.85-1.28Z"/>
              <path class="cls-3" d="m30.13,44.12c.96-3.13,5.82-1.84,10.86,2.9,5.04,4.74,8.36,11.12,7.4,14.26-.95,3.13-5.82,1.84-10.86-2.9-5.04-4.74-8.36-11.12-7.41-14.26Z"/>
            </g>
          </g>
          <g>
            <path class="cls-14" d="m38.49,54.5c-.51-7.41-6.67-13.26-14.2-13.26s-13.7,5.85-14.2,13.26c-5.61.28-10.08,4.92-10.08,10.6s4.75,10.61,10.61,10.61h27.34c5.86,0,10.61-4.75,10.61-10.61s-4.47-10.32-10.08-10.6Z"/>
            <path class="cls-11" d="m38.49,54.5c-.51-7.41-6.67-13.26-14.2-13.26s-13.7,5.85-14.2,13.26c-5.61.28-10.08,4.92-10.08,10.6s4.75,10.61,10.61,10.61h27.34c5.86,0,10.61-4.75,10.61-10.61s-4.47-10.32-10.08-10.6Z"/>
            <path class="cls-2" d="m24.28,55.82c-3.99-3.24-5.55-8.17-3.48-11.02,2.07-2.85,6.99-2.53,10.98.71,3.99,3.24,5.55,8.18,3.48,11.02-2.07,2.85-6.99,2.53-10.98-.71Z"/>
            <path class="cls-4" d="m38.56,65.4c-3.14-2.55-4.36-6.42-2.74-8.66,1.63-2.24,5.49-1.99,8.63.56,3.14,2.55,4.36,6.43,2.74,8.66-1.63,2.24-5.49,1.99-8.63-.56Z"/>
            <path class="cls-8" d="m7.59,65.76c-2.32-3.61-5.01-5.35-6.01-3.89-1,1.46.06,5.58,2.37,9.2,2.32,3.61,5.01,5.36,6.01,3.89,1-1.47-.06-5.58-2.37-9.2Z"/>
          </g>
          <g>
            <path class="cls-1" d="m98.97,24.64c-.39-5.73-5.16-10.27-11-10.27s-10.61,4.53-11,10.27c-4.34.21-7.8,3.81-7.8,8.2s3.68,8.22,8.21,8.22h21.17c4.54,0,8.21-3.68,8.21-8.22s-3.46-7.99-7.8-8.2Z"/>
            <path class="cls-10" d="m98.97,24.64c-.39-5.73-5.16-10.27-11-10.27s-10.61,4.53-11,10.27c-4.34.21-7.8,3.81-7.8,8.2s3.68,8.22,8.21,8.22h21.17c4.54,0,8.21-3.68,8.21-8.22s-3.46-7.99-7.8-8.2Z"/>
            <path class="cls-7" d="m87.97,25.66c-3.09-2.51-4.3-6.33-2.7-8.53,1.6-2.21,5.41-1.96,8.51.55,3.09,2.51,4.3,6.33,2.7,8.54-1.61,2.21-5.41,1.96-8.5-.55Z"/>
            <path class="cls-9" d="m99.03,33.08c-2.43-1.97-3.38-4.97-2.12-6.71,1.26-1.73,4.25-1.54,6.68.43,2.43,1.97,3.38,4.98,2.12,6.71-1.26,1.73-4.25,1.54-6.68-.43Z"/>
            <path class="cls-6" d="m75.05,33.35c-1.79-2.8-3.88-4.14-4.66-3.01-.78,1.13.05,4.32,1.84,7.12,1.79,2.8,3.88,4.14,4.66,3.01.78-1.14-.04-4.32-1.84-7.12Z"/>
          </g>
        </g>
      </g>
    </g>
  </g>
</svg>